<svg width="40" height="40" viewBox="0 0 40 40" fill="none" xmlns="http://www.w3.org/2000/svg">
<g clip-path="url(#clip0_20165_249616)">
<path d="M24.0917 8.39821C25.9709 10.1757 27.3519 12.8306 27.4305 15.4454C27.4426 16.1303 27.435 16.815 27.4218 17.4998C27.5042 17.5202 27.5042 17.5202 27.5882 17.5411C28.05 17.6606 28.4731 17.7976 28.8964 18.0173C28.9495 18.0447 29.0025 18.072 29.0572 18.1002C30.9264 19.0856 32.4583 20.7276 33.1064 22.7651C33.7632 25.0014 33.7019 27.3589 32.5771 29.4425C32.4521 29.6581 32.3242 29.8696 32.1874 30.0779C32.3166 30.3 32.4475 30.4727 32.6562 30.6248C32.8952 30.6435 33.1071 30.626 33.344 30.5906C34.074 30.6905 34.8442 31.7779 35.357 32.2858C35.411 32.3393 35.465 32.3928 35.5206 32.4479C35.8061 32.7309 36.0913 33.0142 36.3763 33.2976C36.6107 33.5306 36.8458 33.763 37.0814 33.9947C37.3679 34.2765 37.6532 34.5594 37.9376 34.8431C38.0454 34.9502 38.1536 35.057 38.2622 35.1633C39.6317 36.5051 39.6317 36.5051 39.7469 37.4296C39.731 38.1865 39.5986 38.6952 39.1161 39.282C38.3901 39.8729 37.7982 39.971 36.8749 39.9216C35.8776 39.7748 34.9812 38.5082 34.3014 37.8272C34.1906 37.7165 34.0798 37.6058 33.969 37.4951C33.7385 37.2647 33.5081 37.0341 33.2778 36.8035C32.9823 36.5075 32.6864 36.2118 32.3904 35.9163C32.1623 35.6885 31.9344 35.4605 31.7066 35.2325C31.5975 35.1233 31.4883 35.0142 31.379 34.9052C31.2272 34.7535 31.0756 34.6017 30.9241 34.4497C30.8789 34.4046 30.8336 34.3595 30.787 34.3131C30.4776 34.002 30.4776 34.002 30.3906 33.8279C30.3991 33.6781 30.4091 33.5283 30.4199 33.3787C30.429 33.0261 30.429 33.0261 30.2691 32.7244C30.1322 32.61 29.9977 32.5113 29.8437 32.4216C29.7765 32.4622 29.7093 32.5028 29.6401 32.5446C27.6557 33.7247 25.3707 34.0939 23.1112 33.5459C22.0797 33.2648 21.1768 32.81 20.3124 32.1873C20.183 32.1079 20.053 32.0293 19.9218 31.9529C19.9202 32.0254 19.9186 32.0979 19.9169 32.1726C19.8339 32.7401 19.4389 33.2754 18.999 33.6277C18.2532 34.1028 17.5753 34.1906 16.7063 34.1811C16.5237 34.1795 16.3413 34.1811 16.1587 34.1831C15.2464 34.1849 14.5478 34.0324 13.8314 33.4415C13.3445 32.9519 13.0589 32.3352 13.037 31.6453C13.0403 31.5663 13.0435 31.4874 13.0468 31.406C12.9477 31.3819 12.9477 31.3819 12.8466 31.3572C12.2922 31.1354 11.9736 30.7637 11.7187 30.2341C11.6535 30.0189 11.6303 29.8253 11.6282 29.6008C11.6274 29.5385 11.6266 29.4761 11.6258 29.4119C11.6252 29.3452 11.6247 29.2784 11.6241 29.2097C11.6219 29.0672 11.6196 28.9247 11.6174 28.7823C11.6141 28.5586 11.6113 28.3349 11.6092 28.1111C11.607 27.8946 11.6035 27.6781 11.5997 27.4616C11.5994 27.3954 11.5992 27.3291 11.5989 27.2608C11.5902 26.8388 11.5156 26.55 11.3281 26.1716C11.2894 26.0556 11.2894 26.0556 11.2499 25.9373C11.1092 25.8536 11.1092 25.8536 10.9374 25.781C8.54256 24.4097 6.71362 22.0521 5.98439 19.3928C5.96889 19.3353 5.9534 19.2778 5.93743 19.2185C5.92123 19.162 5.90503 19.1055 5.88834 19.0473C5.43411 17.4186 5.42133 15.3851 5.85931 13.7498C5.8723 13.6997 5.88529 13.6497 5.89868 13.5982C6.33252 11.9616 7.10486 10.5047 8.20306 9.21852C8.25482 9.15628 8.30659 9.09404 8.35992 9.02992C10.1638 6.93318 12.8011 5.68584 15.537 5.41969C18.7638 5.19216 21.6946 6.24144 24.0917 8.39821ZM12.2656 7.73414C12.1855 7.77332 12.1054 7.81249 12.0229 7.85286C9.83953 8.96674 8.17511 10.9707 7.39251 13.2859C7.31943 13.5174 7.25202 13.7501 7.18743 13.9841C7.16085 14.0788 7.13426 14.1735 7.10687 14.271C6.54282 16.7048 7.05903 19.3523 8.36533 21.4639C9.21487 22.7759 10.2898 23.78 11.5966 24.6238C12.2158 25.0317 12.5699 25.4677 12.8124 26.1716C12.9151 26.6849 12.9339 27.2119 12.9687 27.7341C14.3867 27.7341 15.8046 27.7341 17.2656 27.7341C17.1882 27.2185 17.1109 26.7029 17.0312 26.1716C16.9474 23.7914 17.5973 21.6102 19.2068 19.8261C20.6948 18.2431 22.7827 17.3267 24.9493 17.2597C25.331 17.2533 25.7121 17.2569 26.0937 17.2654C26.182 14.3865 25.5227 11.9384 23.5311 9.79133C23.4744 9.73121 23.4177 9.67109 23.3593 9.60914C23.3115 9.55627 23.2636 9.5034 23.2143 9.44893C21.5465 7.67438 19.1565 6.86845 16.7846 6.70112C15.2242 6.65488 13.6539 7.03292 12.2656 7.73414ZM19.8657 21.0218C19.0107 22.1154 18.3416 23.5116 18.2812 24.9216C18.2772 25.0054 18.2731 25.0892 18.269 25.1756C18.2206 27.1105 18.8745 28.8807 20.2111 30.2888C20.2703 30.3481 20.3295 30.4074 20.3906 30.4685C20.4498 30.5286 20.509 30.5888 20.57 30.6507C21.9664 31.9901 23.7824 32.476 25.6725 32.4412C27.5721 32.375 29.1933 31.4105 30.494 30.0822C31.7745 28.6728 32.2556 26.8165 32.1977 24.9535C32.0924 23.0286 31.1021 21.433 29.7402 20.1398C28.4455 19.0254 26.7175 18.4597 25.0198 18.4959C23.007 18.6505 21.1963 19.4902 19.8657 21.0218ZM12.9687 29.0623C12.9218 29.5973 12.9218 29.5973 13.1493 29.9558C13.452 30.2444 13.6622 30.2438 14.0649 30.243C14.2104 30.243 14.2104 30.243 14.3587 30.243C14.4645 30.2426 14.5703 30.2422 14.6761 30.2418C14.7844 30.2416 14.8927 30.2415 15.0009 30.2414C15.2857 30.2411 15.5704 30.2404 15.8552 30.2395C16.1458 30.2387 16.4364 30.2384 16.7271 30.238C17.2972 30.2371 17.8673 30.2357 18.4374 30.2341C18.2312 29.8474 18.0249 29.4607 17.8124 29.0623C16.214 29.0623 14.6156 29.0623 12.9687 29.0623ZM31.2499 31.1716C31.1468 31.3006 31.0437 31.4295 30.9374 31.5623C31.1179 31.717 31.2984 31.8716 31.4843 32.031C31.5874 31.9021 31.6906 31.7732 31.7968 31.6404C31.6163 31.4857 31.4359 31.331 31.2499 31.1716ZM14.3749 31.5623C14.4832 32.1036 14.7029 32.4204 15.1562 32.7341C15.5432 32.8631 15.9452 32.8299 16.3505 32.831C16.5073 32.8318 16.6642 32.8342 16.8211 32.8367C16.9705 32.8373 16.9705 32.8373 17.123 32.8379C17.214 32.8386 17.305 32.8394 17.3987 32.8401C17.8058 32.7961 18.0529 32.6499 18.3398 32.3631C18.5554 32.0807 18.5554 32.0807 18.6718 31.5623C17.2538 31.5623 15.8359 31.5623 14.3749 31.5623ZM33.0794 32.302C33.0275 32.3544 32.9755 32.4068 32.922 32.4607C32.8658 32.5171 32.8097 32.5735 32.7519 32.6316C32.6929 32.6912 32.6339 32.7508 32.5732 32.8123C32.5139 32.8719 32.4546 32.9315 32.3936 32.9929C32.2466 33.1409 32.0997 33.289 31.9531 33.4373C32.0593 33.6608 32.1597 33.8169 32.3437 33.9841C32.5814 33.878 32.7439 33.7588 32.926 33.5734C32.9743 33.5245 33.0226 33.4757 33.0724 33.4254C33.1468 33.3491 33.1468 33.3491 33.2226 33.2713C33.2733 33.2198 33.3241 33.1683 33.3764 33.1153C33.5013 32.9886 33.6258 32.8615 33.7499 32.7341C33.6737 32.6428 33.5971 32.5517 33.5204 32.4607C33.4778 32.41 33.4352 32.3592 33.3913 32.3069C33.355 32.2674 33.3186 32.2279 33.2812 32.1873C33.1845 32.1784 33.1845 32.1784 33.0794 32.302ZM34.4768 33.7864C34.4253 33.8388 34.3737 33.8911 34.3206 33.9451C34.2368 34.0297 34.2368 34.0297 34.1512 34.116C34.0638 34.2054 34.0638 34.2054 33.9745 34.2966C33.9156 34.3563 33.8567 34.4159 33.796 34.4773C33.6501 34.6251 33.5045 34.7732 33.3593 34.9216C33.7176 35.3509 34.0974 35.7505 34.4924 36.146C34.555 36.2088 34.6176 36.2717 34.682 36.3364C34.8136 36.4683 34.9452 36.6002 35.077 36.7319C35.2783 36.9334 35.479 37.1356 35.6797 37.3377C35.808 37.4662 35.9363 37.5947 36.0647 37.7232C36.1244 37.7835 36.1842 37.8438 36.2457 37.9059C36.3021 37.962 36.3584 38.0181 36.4164 38.0759C36.49 38.1496 36.49 38.1496 36.5651 38.2249C36.9121 38.5283 37.1843 38.6407 37.6388 38.6271C37.9361 38.5696 38.0747 38.4197 38.2812 38.2029C38.4215 37.9224 38.4129 37.6485 38.3593 37.3435C38.2633 37.1898 38.2633 37.1898 38.1281 37.0527C38.0782 36.9988 38.0284 36.9449 37.977 36.8893C37.9227 36.833 37.8684 36.7766 37.8124 36.7185C37.7577 36.6615 37.7029 36.6046 37.6465 36.5459C37.465 36.3595 37.2818 36.175 37.098 35.991C37.0315 35.9242 36.965 35.8575 36.8965 35.7887C36.7571 35.6489 36.6176 35.5092 36.478 35.3696C36.2635 35.1549 36.0495 34.9396 35.8357 34.7242C35.6998 34.5882 35.564 34.4521 35.4281 34.3162C35.364 34.2515 35.2998 34.1868 35.2338 34.1202C35.1746 34.0612 35.1153 34.0022 35.0543 33.9414C35.0022 33.8892 34.95 33.8369 34.8963 33.7831C34.7148 33.6284 34.6569 33.6304 34.4768 33.7864Z" fill="#4AAB3D"/>
<path d="M29.0576 20.4322C30.0858 21.261 30.8253 22.2598 31.25 23.5157C31.2749 23.5868 31.2998 23.6579 31.3254 23.7311C31.8056 25.3909 31.5045 27.1365 30.7041 28.6301C30.5229 28.9554 30.3208 29.2487 30.0782 29.5313C30.0394 29.5811 30.0006 29.631 29.9607 29.6823C29.0009 30.8688 27.5002 31.5892 26.0001 31.7603C24.2475 31.9197 22.5698 31.4481 21.1817 30.3662C19.9765 29.3199 19.0996 27.8016 18.967 26.1951C18.9579 25.9755 18.9547 25.7569 18.9551 25.5371C18.9552 25.4589 18.9554 25.3807 18.9555 25.3001C18.9667 24.6123 19.0787 24.0117 19.2969 23.3594C19.3321 23.2506 19.3321 23.2506 19.368 23.1397C19.9027 21.6582 21.1381 20.441 22.544 19.7754C24.6684 18.8122 27.1737 19.0469 29.0576 20.4322ZM21.5512 22.128C20.5241 23.3279 20.2021 24.7035 20.3125 26.25C20.4515 27.4216 21.1443 28.535 22.0313 29.2969C23.163 30.1856 24.4343 30.5652 25.8719 30.4376C27.2853 30.2162 28.4795 29.4673 29.3286 28.3158C30.1447 27.0657 30.3841 25.6538 30.0782 24.1895C29.662 22.8282 28.7936 21.8131 27.5782 21.0938C27.272 20.9397 26.9651 20.8132 26.6407 20.7032C26.5861 20.684 26.5315 20.6649 26.4752 20.6452C24.7174 20.1459 22.7817 20.8438 21.5512 22.128Z" fill="#4AAB3D"/>
<path d="M18.6767 9.2528C18.9843 9.29675 18.9843 9.29675 19.1796 9.40417C19.4988 9.96273 19.2474 10.7905 19.143 11.3896C19.1274 11.4822 19.1118 11.5747 19.0957 11.6701C19.0462 11.963 18.9957 12.2559 18.9453 12.5487C18.9113 12.7484 18.8774 12.9481 18.8436 13.1478C18.761 13.635 18.6776 14.1222 18.5937 14.6092C18.6631 14.608 18.7324 14.6068 18.8039 14.6055C19.0619 14.6015 19.3199 14.5986 19.5779 14.5964C19.6894 14.5952 19.801 14.5936 19.9125 14.5916C20.0731 14.5887 20.2336 14.5874 20.3942 14.5864C20.4908 14.5851 20.5873 14.5839 20.6868 14.5826C20.9575 14.6114 21.0635 14.6485 21.2499 14.8436C21.34 15.1387 21.3953 15.3307 21.2579 15.6127C21.1337 15.782 20.999 15.9367 20.8593 16.0936C20.7603 16.2117 20.6612 16.3297 20.5624 16.4479C20.4141 16.6246 20.2642 16.7999 20.1143 16.9753C19.9292 17.1921 19.7448 17.4094 19.5605 17.6268C19.5247 17.6691 19.4888 17.7114 19.4519 17.7549C19.1701 18.0883 18.8937 18.4259 18.6181 18.7645C18.3809 19.053 18.1391 19.3375 17.8973 19.6221C17.6708 19.889 17.4475 20.1581 17.2265 20.4296C16.9339 20.789 16.6356 21.1431 16.3355 21.4962C16.102 21.7713 15.8721 22.049 15.6445 22.329C15.5879 22.3978 15.5313 22.4665 15.473 22.5374C15.3691 22.6648 15.2668 22.7935 15.1666 22.9238C14.9451 23.2008 14.8262 23.3394 14.4824 23.452C14.1909 23.4358 14.0551 23.3833 13.8281 23.203C13.5697 22.6863 13.7913 21.9056 13.8839 21.3628C13.8976 21.2797 13.9113 21.1965 13.9254 21.1109C13.9689 20.8479 14.0132 20.585 14.0576 20.3221C14.0871 20.1439 14.1165 19.9657 14.1459 19.7875C14.1999 19.4622 14.2538 19.137 14.3087 18.8119C14.3196 18.7469 14.3306 18.682 14.3418 18.615C14.3727 18.4495 14.4103 18.2877 14.4531 18.1249C14.3532 18.1273 14.3532 18.1273 14.2513 18.1298C14.003 18.1352 13.7548 18.1391 13.5065 18.142C13.3993 18.1436 13.2921 18.1457 13.1849 18.1484C13.0304 18.1523 12.8758 18.1539 12.7212 18.1554C12.6283 18.157 12.5354 18.1587 12.4398 18.1604C12.1378 18.1179 12.0119 18.024 11.7968 17.8124C11.6865 17.5917 11.6978 17.4321 11.7187 17.1874C11.8252 17.0064 11.8252 17.0064 11.9775 16.8309C12.0345 16.7639 12.0915 16.6968 12.1502 16.6277C12.2141 16.5546 12.2779 16.4815 12.3437 16.4061C12.4492 16.2819 12.5542 16.1573 12.6593 16.0326C12.7694 15.9021 12.88 15.772 12.9907 15.642C13.1799 15.4188 13.3653 15.1928 13.5497 14.9657C13.8589 14.5858 14.1768 14.2142 14.4965 13.8431C14.793 13.4983 15.0822 13.1481 15.3689 12.795C15.5689 12.5511 15.7723 12.3105 15.9765 12.0702C16.24 11.7601 16.5009 11.4483 16.7578 11.1327C17.0222 10.8083 17.2891 10.4861 17.5585 10.1659C17.611 10.1031 17.611 10.1031 17.6646 10.0391C18.3382 9.24136 18.3382 9.24136 18.6767 9.2528ZM17.4999 12.3436C16.9769 12.9426 16.457 13.5427 15.9564 14.1606C15.7576 14.4038 15.5549 14.6434 15.3515 14.8827C14.8226 15.506 14.2994 16.1283 13.8281 16.7967C13.9043 16.7985 13.9043 16.7985 13.9821 16.8002C14.2124 16.806 14.4426 16.8136 14.6728 16.8212C14.7528 16.8229 14.8328 16.8247 14.9153 16.8265C15.0304 16.8307 15.0304 16.8307 15.148 16.8349C15.2187 16.8369 15.2895 16.839 15.3624 16.8411C15.5468 16.8749 15.5468 16.8749 15.684 16.9653C15.9307 17.3308 15.8531 17.7279 15.7815 18.1398C15.7727 18.192 15.7639 18.2442 15.7549 18.2979C15.7269 18.4633 15.698 18.6286 15.6689 18.7938C15.6402 18.9594 15.6118 19.1249 15.5837 19.2906C15.5582 19.4407 15.532 19.5907 15.5058 19.7406C15.474 19.9626 15.461 20.167 15.4687 20.3905C15.7525 20.1138 16.0151 19.8255 16.2695 19.5214C16.3256 19.4547 16.3256 19.4547 16.3828 19.3866C16.6722 19.0419 16.9571 18.6936 17.2412 18.3446C17.4422 18.1 17.6465 17.8584 17.8515 17.6171C18.1279 17.2911 18.4038 16.9646 18.6767 16.6356C18.7324 16.5686 18.7881 16.5017 18.8455 16.4327C18.9686 16.2706 19.0531 16.1198 19.1406 15.9374C18.9866 15.933 18.9866 15.933 18.8296 15.9285C18.694 15.9234 18.5584 15.9182 18.4228 15.913C18.3553 15.9112 18.2877 15.9094 18.2182 15.9076C17.5265 15.8785 17.5265 15.8785 17.2656 15.6249C17.1793 15.2278 17.1969 14.9037 17.268 14.5058C17.277 14.4536 17.2859 14.4013 17.2952 14.3475C17.3236 14.1823 17.3531 14.0174 17.3828 13.8524C17.4124 13.6866 17.4417 13.5208 17.4703 13.3548C17.4962 13.2049 17.523 13.055 17.5498 12.9052C17.575 12.6831 17.5746 12.5508 17.4999 12.3436Z" fill="#4AAB3D"/>
<path d="M8.98827 2.11591C9.18439 2.20749 9.2455 2.30342 9.35957 2.48647C9.39953 2.54989 9.4395 2.6133 9.48067 2.67864C9.52339 2.74856 9.56611 2.81849 9.61012 2.89053C9.65631 2.96423 9.70251 3.03793 9.7501 3.11386C9.89807 3.35207 10.0424 3.5922 10.1863 3.83291C10.2363 3.91393 10.2864 3.99495 10.338 4.07842C10.6122 4.53943 10.7799 4.85121 10.7039 5.39053C10.6209 5.58096 10.6209 5.58096 10.4695 5.70303C10.1863 5.78169 10.0074 5.81658 9.7328 5.70181C9.45917 5.49055 9.32638 5.24577 9.1609 4.94619C9.12784 4.88769 9.09477 4.82919 9.06071 4.76892C8.99174 4.64681 8.9231 4.5245 8.85477 4.40202C8.75339 4.22332 8.64809 4.04766 8.54109 3.87228C8.47587 3.76313 8.41066 3.65398 8.34547 3.54482C8.31433 3.49501 8.28318 3.44519 8.2511 3.39386C8.09839 3.13253 8.04734 2.97677 8.058 2.67141C8.12575 2.42178 8.12575 2.42178 8.28688 2.22646C8.53511 2.09971 8.71167 2.06363 8.98827 2.11591Z" fill="#4AAB3D"/>
<path d="M5.78148 22.1874C5.97363 22.3667 6.0112 22.4686 6.05003 22.7294C6.00601 23.0375 5.919 23.1342 5.70335 23.3593C5.49036 23.5025 5.26651 23.6212 5.03929 23.7401C4.91247 23.8079 4.78572 23.8759 4.65904 23.944C4.59723 23.9771 4.53542 24.0101 4.47174 24.0442C4.31721 24.1294 4.16735 24.2185 4.01817 24.3126C3.56916 24.5951 3.27007 24.783 2.7346 24.6874C2.54417 24.6044 2.54417 24.6044 2.4221 24.453C2.34158 24.1631 2.30656 23.9886 2.43251 23.711C2.60821 23.4755 2.77583 23.3726 3.03184 23.2293C3.12097 23.1787 3.21009 23.1281 3.30192 23.0761C3.396 23.0239 3.4901 22.9719 3.58421 22.9198C3.67775 22.8672 3.77123 22.8145 3.86467 22.7617C4.03703 22.6646 4.20962 22.5678 4.38251 22.4716C4.53125 22.3878 4.67885 22.3019 4.82509 22.2138C5.18726 21.9976 5.3918 22.0133 5.78148 22.1874Z" fill="#4AAB3D"/>
<path d="M24.688 2.18761C24.8915 2.31655 24.9168 2.40168 24.98 2.63531C25.0052 2.95055 24.9374 3.0906 24.7905 3.36925C24.7666 3.41465 24.7427 3.46005 24.7181 3.50683C24.632 3.66731 24.5432 3.82596 24.4536 3.98449C24.4166 4.05026 24.3797 4.11604 24.3416 4.18381C24.221 4.39663 24.0985 4.60822 23.9751 4.81945C23.9358 4.88769 23.8966 4.95593 23.8561 5.02624C23.4898 5.64021 23.4898 5.64021 23.1255 5.78136C22.836 5.77637 22.6554 5.76516 22.4272 5.58117C22.3038 5.29798 22.2865 5.06506 22.3442 4.76574C22.5036 4.40921 22.7034 4.07854 22.9057 3.74523C22.959 3.65492 23.0121 3.56454 23.0652 3.47408C23.9248 2.02408 23.9248 2.02408 24.688 2.18761Z" fill="#4AAB3D"/>
<path d="M30.3916 7.8908C30.5984 8.02181 30.6224 8.11357 30.6943 8.34979C30.7067 8.65991 30.6711 8.74759 30.4697 8.98455C29.9621 9.36216 29.4059 9.67531 28.8584 9.99041C28.7805 10.0367 28.7025 10.0831 28.6222 10.1308C27.8916 10.5502 27.8916 10.5502 27.4229 10.4689C27.1583 10.2775 27.0489 10.1671 26.9883 9.84393C27.0574 9.4754 27.255 9.28092 27.5592 9.07073C27.6397 9.02517 27.7202 8.97961 27.8031 8.93267C27.9359 8.85684 27.9359 8.85684 28.0714 8.77947C28.1644 8.72738 28.2575 8.6753 28.3506 8.62322C28.4431 8.5706 28.5356 8.51791 28.628 8.46514C28.8765 8.32411 29.1251 8.18383 29.376 8.04705C29.4573 8.0027 29.5385 7.95835 29.6223 7.91266C29.9139 7.78157 30.0858 7.81003 30.3916 7.8908Z" fill="#4AAB3D"/>
<path d="M3.43744 7.89047C3.76284 8.04372 4.06768 8.22641 4.37494 8.41294C4.45631 8.46082 4.53769 8.50871 4.62152 8.55805C5.85805 9.29418 5.85805 9.29418 6.01557 9.60923C6.05737 9.92274 6.04139 10.042 5.85443 10.3026C5.56037 10.5153 5.43689 10.5068 5.07807 10.4686C4.84319 10.3751 4.63082 10.2512 4.414 10.1219C4.35333 10.0868 4.29265 10.0516 4.23014 10.0154C4.10507 9.94262 3.98031 9.86937 3.85584 9.79561C3.68016 9.69226 3.50306 9.59207 3.32514 9.49265C3.21929 9.43231 3.1135 9.37189 3.00775 9.31137C2.95866 9.28419 2.90956 9.257 2.85898 9.229C2.64161 9.1015 2.51213 9.00644 2.38977 8.78342C2.32828 8.53012 2.34247 8.37349 2.42182 8.12485C2.72526 7.76623 3.00972 7.76837 3.43744 7.89047Z" fill="#4AAB3D"/>
<path d="M29.8428 15.6062C29.9128 15.6056 29.9827 15.6049 30.0548 15.6043C30.203 15.6032 30.3513 15.6024 30.4995 15.6018C30.7258 15.6004 30.9521 15.597 31.1784 15.5935C31.3224 15.5927 31.4664 15.5921 31.6104 15.5915C31.7117 15.5895 31.7117 15.5895 31.8151 15.5874C32.1377 15.5886 32.3021 15.5988 32.582 15.7734C32.7344 15.9373 32.7344 15.9373 32.7808 16.0936C32.7655 16.4189 32.7522 16.6413 32.5 16.8748C32.1966 16.976 31.9064 16.9687 31.59 16.9716C31.5236 16.9722 31.4572 16.9728 31.3888 16.9735C31.2484 16.9745 31.108 16.9754 30.9676 16.976C30.7533 16.9773 30.539 16.9808 30.3247 16.9842C30.1882 16.985 30.0517 16.9857 29.9152 16.9862C29.8193 16.9883 29.8193 16.9883 29.7215 16.9903C29.4129 16.9892 29.2547 16.9747 28.9848 16.8114C28.7679 16.5747 28.75 16.4113 28.75 16.0936C28.9948 15.5573 29.304 15.6108 29.8428 15.6062Z" fill="#4AAB3D"/>
<path d="M1.43068 15.5835C1.50048 15.5832 1.57029 15.5829 1.6422 15.5826C1.78936 15.5823 1.93651 15.5829 2.08366 15.5842C2.30883 15.5859 2.5338 15.5842 2.75896 15.5822C2.90214 15.5824 3.04532 15.5828 3.18849 15.5835C3.28933 15.5825 3.28933 15.5825 3.39221 15.5815C3.85603 15.5888 3.85603 15.5888 4.10217 15.767C4.26878 16.0112 4.29659 16.19 4.29659 16.4843C4.15859 16.7032 4.05983 16.8371 3.82784 16.9531C3.60453 16.9627 3.3832 16.9678 3.15981 16.969C3.09333 16.9694 3.02684 16.9698 2.95835 16.9703C2.81748 16.971 2.67661 16.9716 2.53574 16.9719C2.32071 16.9726 2.10575 16.975 1.89073 16.9775C1.75386 16.978 1.61699 16.9784 1.48012 16.9787C1.41598 16.9797 1.35184 16.9807 1.28575 16.9816C0.923081 16.9802 0.684833 16.9546 0.390337 16.7187C0.267914 16.4739 0.245677 16.2006 0.312212 15.9375C0.65321 15.571 0.960641 15.579 1.43068 15.5835Z" fill="#4AAB3D"/>
<path d="M16.5238 0.0294189C16.5826 0.0284119 16.6414 0.0274048 16.702 0.0263672C16.9679 0.105935 17.0415 0.235168 17.1879 0.468872C17.2331 0.705122 17.2317 0.936881 17.2294 1.17688C17.2297 1.24476 17.23 1.31265 17.2303 1.38259C17.2305 1.52573 17.2299 1.66889 17.2286 1.81203C17.2269 2.03068 17.2286 2.24913 17.2306 2.46777C17.2304 2.60714 17.23 2.7465 17.2294 2.88586C17.23 2.95098 17.2306 3.01609 17.2313 3.08318C17.2263 3.39515 17.2105 3.5571 17.0433 3.82855C16.8271 4.02926 16.7004 4.06262 16.4066 4.06262C16.1309 3.9373 16.0294 3.84844 15.8597 3.59387C15.8425 3.36051 15.8341 3.13461 15.8335 2.90112C15.8327 2.79897 15.8327 2.79897 15.8319 2.69475C15.8311 2.55067 15.8307 2.40659 15.8308 2.2625C15.8304 2.04249 15.8276 1.82259 15.8246 1.6026C15.8242 1.46252 15.8239 1.32245 15.8237 1.18237C15.8226 1.11677 15.8215 1.05116 15.8203 0.983572C15.8228 0.666752 15.8358 0.507236 16.0074 0.232208C16.1949 0.0570657 16.2707 0.0250845 16.5238 0.0294189Z" fill="#4AAB3D"/>
</g>
<defs>
<clipPath id="clip0_20165_249616">
<rect width="40" height="40" fill="white"/>
</clipPath>
</defs>
</svg>
