<svg width="40" height="40" viewBox="0 0 40 40" fill="none" xmlns="http://www.w3.org/2000/svg">
<g clip-path="url(#clip0_20170_246596)">
<path d="M4.95942 -0.0199785C5.04558 -0.0203893 5.04558 -0.0203893 5.13349 -0.0208085C5.32609 -0.0215357 5.51868 -0.0211516 5.71128 -0.0207719C5.85072 -0.0210639 5.99015 -0.0214234 6.12959 -0.0218447C6.51287 -0.0228013 6.89614 -0.0227796 7.27942 -0.0225955C7.69275 -0.0225637 8.10607 -0.0234258 8.51939 -0.024167C9.32919 -0.0254654 10.139 -0.0258944 10.9488 -0.0259815C11.607 -0.0260557 12.2652 -0.0263766 12.9233 -0.0268722C14.789 -0.0282483 16.6546 -0.0289689 18.5202 -0.0288518C18.6711 -0.0288424 18.6711 -0.0288424 18.8251 -0.0288329C18.9258 -0.0288265 19.0265 -0.0288201 19.1303 -0.0288135C20.7628 -0.02875 22.3954 -0.0302454 24.0279 -0.0324482C25.7038 -0.0346917 27.3797 -0.0357718 29.0555 -0.0356367C29.9966 -0.0355848 30.9376 -0.0360153 31.8787 -0.0376958C32.6799 -0.0391173 33.481 -0.0394593 34.2822 -0.0383974C34.691 -0.0378867 35.0998 -0.0378805 35.5085 -0.0392339C35.8829 -0.0404604 36.2571 -0.0402416 36.6314 -0.038877C36.7668 -0.0386366 36.9021 -0.0389229 37.0374 -0.0397926C37.9849 -0.045478 38.6731 0.0438095 39.3916 0.707823C39.773 1.12079 40.0099 1.52859 40.0111 2.08984C40.0115 2.18603 40.0119 2.28223 40.0123 2.38135C40.0123 2.48908 40.0124 2.59682 40.0124 2.70455C40.0127 2.81825 40.0131 2.93195 40.0135 3.04565C40.0144 3.35925 40.0148 3.67285 40.0152 3.98645C40.0157 4.32427 40.0166 4.66209 40.0174 4.99991C40.0193 5.81662 40.0205 6.63333 40.0215 7.45004C40.0218 7.68078 40.0221 7.91151 40.0224 8.14225C40.0244 9.57523 40.0261 11.0082 40.027 12.4412C40.0273 12.7733 40.0275 13.1054 40.0277 13.4376C40.0278 13.5201 40.0279 13.6027 40.0279 13.6877C40.0289 15.0234 40.0315 16.3591 40.0348 17.6948C40.0381 19.0665 40.0399 20.4381 40.0403 21.8098C40.0406 22.5797 40.0415 23.3497 40.0441 24.1197C40.0463 24.7759 40.0471 25.432 40.0463 26.0882C40.0459 26.4226 40.0461 26.7571 40.048 27.0916C40.0498 27.3986 40.0497 27.7055 40.0482 28.0125C40.048 28.1228 40.0484 28.2331 40.0496 28.3434C40.0602 29.4007 39.7586 30.2738 39.3168 31.2257C39.1149 31.6549 39.1149 31.6549 38.9848 32.1095C39.0379 32.1224 39.0911 32.1353 39.1459 32.1486C39.5122 32.3356 39.8157 32.6776 40.0004 33.047C40.01 33.2283 40.0145 33.4099 40.0167 33.5914C40.0175 33.6475 40.0182 33.7035 40.019 33.7613C40.0214 33.9473 40.023 34.1333 40.0245 34.3193C40.025 34.3829 40.0255 34.4465 40.0261 34.5121C40.0286 34.8492 40.0305 35.1864 40.032 35.5236C40.0334 35.8019 40.0361 36.0802 40.04 36.3585C40.0448 36.6951 40.0472 37.0315 40.0479 37.3681C40.0486 37.496 40.05 37.6238 40.0523 37.7517C40.0728 38.9503 40.0728 38.9503 39.6935 39.4648C39.1179 39.9793 38.6712 40.057 37.9036 40.0494C37.8045 40.05 37.7053 40.0505 37.6032 40.0511C37.3328 40.0526 37.0625 40.0516 36.7921 40.05C36.5084 40.0487 36.2247 40.0494 35.941 40.0498C35.4649 40.0502 34.9888 40.0489 34.5126 40.0468C33.9629 40.0443 33.4132 40.0443 32.8634 40.0456C32.3334 40.0468 31.8034 40.0463 31.2733 40.045C31.0482 40.0444 30.8232 40.0445 30.5981 40.0451C30.2837 40.0458 29.9694 40.0439 29.6551 40.0418C29.5155 40.0426 29.5155 40.0426 29.3731 40.0433C28.7599 40.0362 28.4925 39.9551 28.0436 39.5396C27.9997 39.4902 27.9558 39.4407 27.9106 39.3898C27.8658 39.3409 27.8211 39.2921 27.7751 39.2418C27.4071 38.685 27.4748 38.0202 27.4741 37.379C27.4736 37.2678 27.4731 37.1566 27.4726 37.0454C27.4716 36.8128 27.4713 36.5803 27.4714 36.3478C27.4715 36.0518 27.4693 35.7558 27.4666 35.4598C27.4649 35.2302 27.4646 35.0006 27.4647 34.7711C27.4645 34.662 27.4638 34.553 27.4626 34.444C27.4547 33.6658 27.4987 32.9614 28.057 32.3732C28.2816 32.1876 28.2816 32.1876 28.4379 32.1876C27.484 30.2798 26.5301 28.372 25.5473 26.4064C21.7316 26.3806 17.916 26.3548 13.9848 26.3282C13.959 26.6118 13.9332 26.8954 13.9066 27.1876C13.8605 27.4136 13.8114 27.6302 13.7504 27.8517C13.7342 27.9121 13.718 27.9725 13.7014 28.0347C13.445 28.9622 13.125 29.8716 12.8129 30.7814C12.8773 30.8349 12.8773 30.8349 12.9429 30.8895C12.9992 30.9373 13.0555 30.9851 13.1135 31.0344C13.1693 31.0813 13.2251 31.1283 13.2826 31.1767C13.6556 31.5407 13.8185 32.0208 13.8395 32.5329C13.8404 32.6408 13.8409 32.7487 13.8411 32.8566C13.8415 32.9157 13.8419 32.9748 13.8423 33.0358C13.8434 33.2311 13.844 33.4263 13.8444 33.6216C13.8448 33.7579 13.8453 33.8941 13.8457 34.0304C13.8466 34.3161 13.847 34.6019 13.8473 34.8876C13.8477 35.2524 13.8496 35.6171 13.8518 35.9819C13.8533 36.2635 13.8537 36.5451 13.8538 36.8266C13.854 36.961 13.8547 37.0954 13.8557 37.2298C13.8676 38.9065 13.8676 38.9065 13.3305 39.4825C13.2864 39.5315 13.2423 39.5804 13.1968 39.6309C12.8881 39.9093 12.642 40.0293 12.2248 40.0304C12.096 40.0316 12.096 40.0316 11.9646 40.0328C11.8712 40.0324 11.7778 40.032 11.6815 40.0317C11.533 40.0325 11.533 40.0325 11.3815 40.0333C11.1105 40.0347 10.8395 40.0346 10.5684 40.0342C10.3419 40.0339 10.1153 40.0344 9.88875 40.0349C9.35404 40.036 8.81933 40.0359 8.28462 40.035C7.73375 40.0341 7.18291 40.0352 6.63204 40.0373C6.15843 40.039 5.68483 40.0395 5.21122 40.0391C4.92865 40.0388 4.64609 40.039 4.36352 40.0403C4.0482 40.0418 3.73295 40.0407 3.41764 40.0393C3.32452 40.0401 3.2314 40.0408 3.13546 40.0416C2.53459 40.0363 2.17873 39.9627 1.72494 39.5512C1.67132 39.4858 1.67132 39.4858 1.61661 39.4191C1.57985 39.3757 1.54309 39.3323 1.50522 39.2875C1.25018 38.9077 1.22684 38.5484 1.22646 38.1014C1.22581 38.0371 1.22516 37.9727 1.22449 37.9065C1.22261 37.6942 1.22192 37.482 1.2214 37.2697C1.2207 37.1215 1.21999 36.9733 1.21927 36.8251C1.21798 36.5144 1.21738 36.2037 1.21715 35.893C1.21673 35.4964 1.21379 35.0999 1.21022 34.7033C1.20788 34.3971 1.20733 34.0909 1.20725 33.7846C1.20692 33.6385 1.20596 33.4924 1.20432 33.3463C1.18892 31.8532 1.18892 31.8532 1.64102 31.2501C1.69258 31.1986 1.74415 31.147 1.79727 31.0939C1.83626 30.7423 1.82621 30.3878 1.82657 30.0343C1.82848 29.9381 1.83039 29.8418 1.83237 29.7427C1.83669 28.352 1.36706 27.1087 0.898832 25.8155C0.820157 25.5979 0.741727 25.3801 0.664009 25.162C0.616222 25.028 0.567929 24.8941 0.518955 24.7605C0.445692 24.5551 0.378174 24.3488 0.312895 24.1407C0.284801 24.0512 0.256707 23.9617 0.227762 23.8695C-0.0268889 22.9987 -0.0468073 22.157 -0.0438558 21.2547C-0.0442661 21.0999 -0.0447569 20.9451 -0.0453233 20.7903C-0.0461304 20.468 -0.0457879 20.1457 -0.0446378 19.8234C-0.0432938 19.4134 -0.0451351 19.0036 -0.0478791 18.5937C-0.0496068 18.2747 -0.0494803 17.9557 -0.0488346 17.6367C-0.0487712 17.4857 -0.0492953 17.3347 -0.0504576 17.1837C-0.0589628 15.8796 0.0951095 14.7555 1.01602 13.7501C1.38389 13.406 1.97058 12.8907 2.50039 12.8907C2.50011 12.8346 2.49982 12.7785 2.49952 12.7207C2.49261 11.3533 2.48745 9.98583 2.4842 8.6184C2.48259 7.95711 2.4804 7.29583 2.47682 6.63455C2.4737 6.05798 2.47169 5.48142 2.47099 4.90484C2.47059 4.59972 2.46964 4.29462 2.46735 3.98951C2.46522 3.70191 2.46458 3.41434 2.46505 3.12673C2.46492 2.9717 2.46325 2.81668 2.46151 2.66167C2.46528 1.84016 2.65369 1.28832 3.21451 0.686766C3.73911 0.182001 4.22041 -0.0191826 4.95942 -0.0199785ZM4.06289 1.72375C3.83537 2.05793 3.81882 2.21337 3.81913 2.61766C3.81906 2.67044 3.81899 2.72321 3.81892 2.77758C3.81879 2.95524 3.81922 3.13289 3.81965 3.31055C3.81967 3.43758 3.81966 3.5646 3.81962 3.69162C3.81959 4.03719 3.82005 4.38276 3.8206 4.72833C3.82109 5.0892 3.82113 5.45007 3.82123 5.81094C3.82147 6.49463 3.82211 7.17832 3.82289 7.86201C3.82377 8.64022 3.8242 9.41844 3.82459 10.1967C3.82541 11.7978 3.8268 13.399 3.82852 15.0001C4.21524 15.0517 4.60196 15.1032 5.00039 15.1564C5.00082 14.9456 5.00082 14.9456 5.00126 14.7305C5.00414 13.4062 5.00864 12.082 5.01476 10.7577C5.01787 10.0769 5.0204 9.39612 5.02157 8.71529C5.02258 8.12175 5.02469 7.52822 5.0281 6.93469C5.02986 6.62054 5.03109 6.30641 5.03101 5.99225C5.03095 5.69624 5.03236 5.40027 5.03486 5.10427C5.03552 4.99594 5.03566 4.8876 5.03522 4.77927C5.03281 4.09221 5.06307 3.58329 5.52743 3.04516C5.57104 3.01032 5.61465 2.97547 5.65957 2.93957C5.70298 2.90352 5.74638 2.86747 5.79111 2.83032C6.13621 2.60504 6.43358 2.55864 6.84214 2.55815C6.89292 2.55787 6.94371 2.5576 6.99603 2.55732C7.16644 2.55659 7.33683 2.55697 7.50724 2.55735C7.63055 2.55706 7.75387 2.5567 7.87718 2.55628C8.21625 2.55532 8.55531 2.55535 8.89438 2.55553C9.25999 2.55556 9.62559 2.5547 9.99119 2.55396C10.7076 2.55266 11.4239 2.55223 12.1403 2.55214C12.7225 2.55207 13.3048 2.55175 13.887 2.55125C15.5373 2.54988 17.1877 2.54916 18.838 2.54927C18.927 2.54928 19.016 2.54929 19.1077 2.54929C19.1968 2.5493 19.2859 2.5493 19.3777 2.54931C20.8218 2.54937 22.266 2.54788 23.7102 2.54568C25.1926 2.54343 26.6751 2.54235 28.1575 2.54249C28.99 2.54254 29.8224 2.54211 30.6548 2.54043C31.3636 2.53901 32.0723 2.53867 32.7811 2.53973C33.1427 2.54024 33.5043 2.54024 33.8659 2.53889C34.1971 2.53766 34.5282 2.53788 34.8593 2.53925C34.979 2.53949 35.0987 2.5392 35.2184 2.53833C35.8396 2.53412 36.3442 2.53573 36.8754 2.89075C37.3255 3.34084 37.5249 3.7915 37.5327 4.41659C37.5323 4.48035 37.5319 4.54411 37.5315 4.60981C37.5321 4.67887 37.5326 4.74793 37.5331 4.81908C37.5346 5.04951 37.5344 5.27992 37.5342 5.51036C37.5349 5.67592 37.5357 5.84149 37.5366 6.00705C37.5387 6.4559 37.5395 6.90474 37.5399 7.3536C37.5407 7.82291 37.5427 8.29221 37.5446 8.76152C37.548 9.64994 37.5503 10.5384 37.5521 11.4268C37.5542 12.4384 37.5576 13.4499 37.5612 14.4615C37.5684 16.5421 37.574 18.6226 37.5785 20.7032C37.9652 20.7032 38.352 20.7032 38.7504 20.7032C38.7575 18.3425 38.7631 15.9817 38.7664 13.621C38.7667 13.3423 38.7671 13.0636 38.7676 12.7849C38.7676 12.7294 38.7677 12.6739 38.7678 12.6168C38.7692 11.7183 38.7716 10.8199 38.7745 9.92147C38.7774 8.99962 38.7792 8.07778 38.7798 7.15593C38.7802 6.63813 38.7812 6.12034 38.7834 5.60254C38.7856 5.11533 38.7862 4.62813 38.7857 4.14092C38.7858 3.96197 38.7864 3.78302 38.7876 3.60407C38.7892 3.35994 38.7888 3.11589 38.788 2.87176C38.7889 2.80077 38.7898 2.72979 38.7907 2.65666C38.7867 2.22728 38.7258 1.98027 38.4379 1.64075C37.9622 1.25812 37.5312 1.24044 36.9371 1.23985C36.8819 1.23969 36.8267 1.23953 36.7698 1.23937C36.5849 1.23893 36.3999 1.23904 36.2149 1.23915C36.081 1.23895 35.947 1.23871 35.8131 1.23845C35.4449 1.23782 35.0768 1.23767 34.7086 1.23762C34.3116 1.23747 33.9146 1.23688 33.5176 1.23636C32.6495 1.2353 31.7814 1.23483 30.9133 1.23448C30.3713 1.23427 29.8294 1.23393 29.2874 1.23358C27.7869 1.23263 26.2864 1.23182 24.7859 1.23156C24.6419 1.23153 24.6419 1.23153 24.4949 1.23151C24.3506 1.23148 24.3506 1.23148 24.2033 1.23146C24.0082 1.23142 23.8132 1.23139 23.6182 1.23135C23.5214 1.23134 23.4247 1.23132 23.325 1.2313C21.7569 1.23099 20.1887 1.22963 18.6206 1.22781C17.0107 1.22596 15.4009 1.22498 13.7911 1.22489C12.8871 1.22482 11.9832 1.22437 11.0793 1.22295C10.3097 1.22175 9.54012 1.22135 8.77054 1.22199C8.37789 1.2223 7.98525 1.22223 7.5926 1.22113C7.23305 1.22014 6.87351 1.22023 6.51396 1.22118C6.38399 1.22133 6.25403 1.22109 6.12407 1.22041C4.99269 1.17609 4.99269 1.17609 4.06289 1.72375ZM6.32852 4.14075C6.28136 4.37524 6.28136 4.37524 6.28831 4.64063C6.28732 4.74357 6.28632 4.84651 6.2853 4.95256C6.28578 5.06653 6.2863 5.1805 6.28684 5.29446C6.28629 5.4146 6.28561 5.53474 6.2848 5.65487C6.28304 5.9813 6.28328 6.30769 6.28397 6.63412C6.28437 6.90705 6.2838 7.17997 6.28323 7.4529C6.2819 8.09748 6.28218 8.74205 6.28349 9.38664C6.28481 10.05 6.28358 10.7133 6.28105 11.3767C6.27896 11.9472 6.2784 12.5176 6.27906 13.0881C6.27944 13.4284 6.27928 13.7686 6.27767 14.1089C6.27622 14.4296 6.27671 14.7501 6.27862 15.0708C6.27901 15.1878 6.27875 15.3048 6.27775 15.4218C6.2726 16.0781 6.33151 16.6166 6.62544 17.2144C6.90184 17.8268 6.88422 18.5162 6.88302 19.1758C6.88299 19.2733 6.88299 19.2733 6.88296 19.3726C6.88243 19.6417 6.88175 19.9106 6.87568 20.1796C6.8397 21.1404 6.8397 21.1404 7.29501 21.9548C7.41272 22.0616 7.533 22.1658 7.65664 22.2657C7.68573 22.3067 7.71481 22.3477 7.74477 22.39C7.98117 22.568 8.24584 22.5314 8.53019 22.5283C8.62907 22.5286 8.62907 22.5286 8.72994 22.5289C8.95164 22.5293 9.17329 22.528 9.39498 22.5267C9.55357 22.5267 9.71217 22.5267 9.87076 22.5268C10.302 22.5269 10.7333 22.5255 11.1646 22.5239C11.615 22.5224 12.0655 22.5223 12.5159 22.522C13.3692 22.5213 14.2225 22.5194 15.0758 22.517C16.0471 22.5144 17.0184 22.5131 17.9897 22.5119C19.9881 22.5095 21.9864 22.5053 23.9848 22.5001C23.9936 22.4425 24.0025 22.3849 24.0116 22.3255C24.0305 22.211 24.0305 22.211 24.0498 22.0942C24.0618 22.0189 24.0739 21.9436 24.0863 21.8659C24.2166 21.3295 24.5592 20.9297 25.0077 20.623C25.6023 20.3196 26.3129 20.2609 26.9502 20.4646C27.5364 20.7441 27.8837 21.127 28.2133 21.6847C28.383 21.9703 28.5506 22.2337 28.7504 22.5001C28.7504 20.6697 28.7504 18.8392 28.7504 16.9532C28.1298 16.9461 28.1298 16.9461 27.4967 16.9389C27.2347 16.9357 26.9726 16.9326 26.7106 16.9293C26.2946 16.9241 25.8787 16.919 25.4627 16.9144C25.1274 16.9107 24.7921 16.9066 24.4567 16.9022C24.3288 16.9006 24.2008 16.8992 24.0728 16.8979C23.8937 16.896 23.7145 16.8936 23.5353 16.8912C23.4333 16.8899 23.3313 16.8887 23.2262 16.8875C22.8267 16.8683 22.8267 16.8683 22.6566 16.797C22.5631 16.5163 22.5527 16.3105 22.5785 16.0157C22.7005 15.8448 22.7005 15.8448 22.891 15.7032C23.093 15.6717 23.2624 15.6591 23.4644 15.6606C23.5216 15.6598 23.5788 15.659 23.6377 15.6581C23.8262 15.6558 24.0147 15.6557 24.2033 15.6556C24.3342 15.6545 24.4651 15.6532 24.596 15.6517C24.9402 15.6483 25.2844 15.6467 25.6287 15.6456C25.9801 15.644 26.3314 15.6408 26.6828 15.6376C27.372 15.6317 28.0612 15.6278 28.7504 15.6251C28.7657 15.5657 28.781 15.5064 28.7967 15.4452C28.8172 15.3675 28.8377 15.2898 28.8588 15.2098C28.889 15.0941 28.889 15.0941 28.9198 14.9761C29.07 14.4899 29.4423 14.171 29.8588 13.9015C30.5312 13.7361 31.1746 13.7358 31.7848 14.0879C32.3089 14.4946 32.4572 14.9999 32.5785 15.6251C32.6408 15.6259 32.703 15.6266 32.7672 15.6273C33.0494 15.6315 33.3315 15.6381 33.6137 15.6447C33.7117 15.6458 33.8097 15.6469 33.9106 15.648C34.0048 15.6505 34.0989 15.653 34.196 15.6556C34.2827 15.6573 34.3694 15.6589 34.4588 15.6606C34.7377 15.7125 34.8325 15.7901 35.0004 16.0157C35.0262 16.3105 35.0158 16.5163 34.9223 16.797C34.6704 16.8969 34.4031 16.8906 34.1349 16.8998C34.0532 16.9028 33.9715 16.9058 33.8873 16.9089C33.7841 16.9122 33.6809 16.9156 33.5746 16.9191C33.0815 16.936 33.0815 16.936 32.5785 16.9532C32.5785 17.7782 32.5785 18.6032 32.5785 19.4532C32.9137 19.4532 33.2488 19.4532 33.5941 19.4532C34.0033 19.5669 34.2998 19.709 34.6098 20.0001C34.6356 20.0517 34.6613 20.1032 34.6879 20.1564C34.7572 20.1435 34.8265 20.1306 34.8979 20.1173C35.1873 20.0748 35.4713 20.0743 35.7636 20.0758C35.8549 20.0762 35.9461 20.0765 36.0401 20.0769C36.1095 20.0773 36.1789 20.0778 36.2504 20.0782C36.2577 18.0057 36.2632 15.9331 36.2666 13.8605C36.2682 12.8982 36.2704 11.9359 36.274 10.9736C36.2771 10.135 36.2791 9.29643 36.2798 8.45786C36.2802 8.01368 36.2812 7.56952 36.2834 7.12535C36.2856 6.70751 36.2862 6.2897 36.2857 5.87186C36.2858 5.7183 36.2864 5.56473 36.2876 5.41117C36.2892 5.20187 36.2888 4.99267 36.288 4.78337C36.2889 4.72227 36.2898 4.66117 36.2907 4.59822C36.2879 4.34156 36.2781 4.17801 36.1227 3.96899C35.8823 3.78588 35.7434 3.78909 35.4428 3.78892C35.3403 3.78811 35.2378 3.78729 35.1322 3.78645C35.0182 3.78713 34.9042 3.78783 34.7902 3.78856C34.6693 3.7882 34.5484 3.78771 34.4275 3.78709C34.0948 3.78578 33.7621 3.78643 33.4294 3.78739C33.0707 3.7881 32.7121 3.78701 32.3535 3.78615C31.6507 3.78476 30.948 3.78506 30.2452 3.78597C29.6743 3.78667 29.1033 3.78677 28.5323 3.78643C28.4105 3.78636 28.4105 3.78636 28.2863 3.78628C28.1214 3.78618 27.9565 3.78608 27.7916 3.78598C26.2443 3.78509 24.6971 3.78611 23.1498 3.78779C21.8213 3.78919 20.4929 3.78895 19.1644 3.7875C17.6228 3.78583 16.0812 3.78517 14.5395 3.78613C14.3752 3.78623 14.2109 3.78633 14.0466 3.78643C13.9254 3.7865 13.9254 3.7865 13.8017 3.78657C13.2312 3.78684 12.6607 3.78639 12.0902 3.78565C11.3952 3.78478 10.7002 3.78501 10.0053 3.78668C9.65048 3.7875 9.29571 3.78782 8.94092 3.78679C8.61641 3.78586 8.29193 3.78636 7.96742 3.78803C7.84976 3.78838 7.7321 3.7882 7.61445 3.78744C7.45501 3.7865 7.29557 3.78765 7.13614 3.78892C7.04743 3.78897 6.95872 3.78902 6.86732 3.78907C6.58959 3.83715 6.49728 3.91875 6.32852 4.14075ZM30.0785 15.4689C30.0202 15.7832 30.027 16.0942 30.0307 16.4131C30.0303 16.5088 30.0298 16.6045 30.0294 16.7031C30.0287 16.9108 30.0287 17.1184 30.0299 17.326C30.0318 17.6543 30.0309 17.9826 30.0296 18.3108C30.0277 18.889 30.0282 19.4671 30.0291 20.0452C30.0306 20.9162 30.0302 21.7872 30.0276 22.6582C30.0267 22.9846 30.027 23.311 30.0284 23.6374C30.0291 23.8878 30.0284 24.1382 30.028 24.3886C30.0287 24.4792 30.0294 24.5698 30.0302 24.6631C30.0298 24.7457 30.0293 24.8283 30.0289 24.9134C30.0291 24.9852 30.0292 25.0571 30.0294 25.1311C29.9944 25.3502 29.9441 25.4178 29.766 25.547C29.1612 25.679 29.1612 25.679 28.9066 25.547C28.8533 25.4173 28.8015 25.287 28.7504 25.1564C28.6639 24.9947 28.5747 24.8345 28.4837 24.6754C28.4576 24.6298 28.4316 24.5842 28.4048 24.5373C28.3496 24.4408 28.2943 24.3444 28.2389 24.2481C28.1563 24.1045 28.0741 23.9606 27.992 23.8166C27.8299 23.533 27.6655 23.2508 27.5004 22.9689C27.4729 22.9215 27.4453 22.8741 27.417 22.8252C27.336 22.6862 27.2539 22.5479 27.1714 22.4098C27.1238 22.3294 27.0763 22.249 27.0273 22.1661C26.8416 21.9059 26.6431 21.6788 26.3236 21.602C25.9798 21.6124 25.737 21.6379 25.4691 21.8751C25.2839 22.1798 25.2216 22.3443 25.2816 22.6986C25.4016 23.1307 25.6073 23.5212 25.8091 23.9199C25.8517 24.0052 25.8943 24.0906 25.9381 24.1784C26.0542 24.4108 26.1708 24.6428 26.2877 24.8747C26.4101 25.1178 26.5318 25.3612 26.6536 25.6046C26.8579 26.0127 27.0626 26.4206 27.2677 26.8283C27.5312 27.352 27.7939 27.8761 28.0564 28.4004C28.2821 28.8512 28.5082 29.3019 28.7342 29.7525C28.7828 29.8493 28.8313 29.946 28.8798 30.0428C29.039 30.3602 29.1984 30.6776 29.358 30.9948C29.3984 31.0754 29.4388 31.1559 29.4804 31.2389C29.5354 31.3482 29.5354 31.3482 29.5916 31.4596C29.6396 31.5551 29.6396 31.5551 29.6885 31.6525C29.7554 31.7939 29.7554 31.7939 29.8441 31.8751C30.0843 31.8826 30.3228 31.8849 30.563 31.884C30.6385 31.884 30.7139 31.884 30.7916 31.884C31.0423 31.884 31.293 31.8834 31.5437 31.8827C31.717 31.8826 31.8903 31.8825 32.0636 31.8824C32.5207 31.8821 32.9778 31.8813 33.4349 31.8805C33.9009 31.8797 34.367 31.8793 34.833 31.8789C35.7482 31.8781 36.6633 31.8768 37.5785 31.8751C37.6401 31.7274 37.7017 31.5798 37.7632 31.4321C37.7975 31.3498 37.8318 31.2676 37.8672 31.1829C38.0119 30.8349 38.1549 30.4862 38.2963 30.1368C38.323 30.0718 38.3498 30.0067 38.3773 29.9397C38.4033 29.8754 38.4292 29.8112 38.4559 29.745C38.4788 29.6888 38.5017 29.6326 38.5252 29.5746C38.6991 29.0711 38.7739 28.6179 38.7743 28.0889C38.7753 27.9946 38.7753 27.9946 38.7763 27.8985C38.7782 27.6929 38.7789 27.4872 38.7794 27.2816C38.7801 27.1379 38.7808 26.9941 38.7815 26.8504C38.7828 26.5502 38.7834 26.2499 38.7836 25.9497C38.7841 25.5649 38.787 25.1802 38.7906 24.7954C38.7929 24.499 38.7935 24.2027 38.7935 23.9063C38.7939 23.7644 38.7948 23.6225 38.7965 23.4806C38.7986 23.2825 38.7982 23.0846 38.7972 22.8865C38.7984 22.828 38.7995 22.7695 38.8007 22.7092C38.7966 22.4152 38.7727 22.2898 38.5699 22.071C38.3587 21.9309 38.3587 21.9309 38.0766 21.9484C37.8119 22.0067 37.8119 22.0067 37.682 22.18C37.5308 22.5335 37.54 22.8713 37.5346 23.2521C37.5319 23.3996 37.5286 23.5471 37.5245 23.6946C37.5235 23.7596 37.5226 23.8246 37.5216 23.8916C37.5004 24.0626 37.5004 24.0626 37.3441 24.297C36.9163 24.4092 36.9163 24.4092 36.7191 24.3751C36.4647 24.1706 36.3413 24.0561 36.2832 23.73C36.2845 23.6358 36.2857 23.5416 36.287 23.4446C36.2865 23.3416 36.286 23.2385 36.2855 23.1323C36.2866 23.0241 36.2879 22.9159 36.2895 22.8077C36.2925 22.5951 36.2929 22.383 36.2919 22.1702C36.2932 22.0762 36.2944 21.9821 36.2957 21.8852C36.271 21.6279 36.271 21.6279 36.0702 21.4517C35.8597 21.3051 35.8597 21.3051 35.5766 21.3234C35.3075 21.3808 35.3075 21.3808 35.1814 21.574C35.0591 21.8391 35.0474 22.0311 35.044 22.3225C35.042 22.4224 35.0399 22.5223 35.0378 22.6252C35.0366 22.73 35.0355 22.8348 35.0346 22.9396C35.0321 23.1457 35.0286 23.3517 35.0245 23.5579C35.0235 23.6491 35.0226 23.7403 35.0216 23.8342C35.0004 24.0626 35.0004 24.0626 34.8441 24.297C34.2258 24.4167 34.2258 24.4167 33.9066 24.297C33.8172 23.9762 33.818 23.6662 33.8175 23.3354C33.8161 23.2064 33.8146 23.0775 33.813 22.9486C33.8107 22.7461 33.809 22.5437 33.809 22.3412C33.8087 22.1452 33.806 21.9493 33.8029 21.7534C33.8034 21.6931 33.804 21.6329 33.8046 21.5708C33.7975 21.2582 33.7617 21.1086 33.5695 20.8576C33.3652 20.676 33.3652 20.676 33.0766 20.6984C32.7776 20.7925 32.7226 20.8234 32.5785 21.0939C32.5549 21.323 32.5441 21.5364 32.544 21.7656C32.543 21.8305 32.542 21.8954 32.5409 21.9622C32.5377 22.1692 32.536 22.3761 32.5346 22.5831C32.5327 22.7904 32.5305 22.9976 32.5274 23.2049C32.5255 23.3337 32.5243 23.4626 32.524 23.5914C32.5199 23.8929 32.5152 24.0404 32.3441 24.297C31.7258 24.4167 31.7258 24.4167 31.4066 24.297C31.3409 24.0679 31.3186 23.8643 31.3183 23.6263C31.3179 23.5547 31.3176 23.4832 31.3173 23.4095C31.3174 23.3317 31.3174 23.2538 31.3174 23.1735C31.3172 23.091 31.3169 23.0086 31.3166 22.9236C31.316 22.7445 31.3156 22.5654 31.3153 22.3863C31.3148 22.103 31.3136 21.8196 31.3121 21.5363C31.308 20.7307 31.3043 19.9251 31.3031 19.1194C31.3023 18.6267 31.3 18.134 31.2967 17.6413C31.2957 17.4534 31.2953 17.2655 31.2955 17.0777C31.2957 16.8151 31.294 16.5526 31.2918 16.29C31.2923 16.2122 31.2928 16.1345 31.2934 16.0544C31.2888 15.7166 31.281 15.5205 31.1059 15.2253C30.9449 15.0602 30.9449 15.0602 30.7084 15.0294C30.3731 15.0978 30.2812 15.1911 30.0785 15.4689ZM1.95932 14.7496C1.45302 15.2883 1.31755 15.9162 1.31345 16.6301C1.31281 16.6918 1.31217 16.7534 1.31152 16.817C1.30958 17.0212 1.30828 17.2254 1.30716 17.4296C1.30674 17.4999 1.30633 17.5701 1.3059 17.6425C1.30381 18.0156 1.3023 18.3886 1.30117 18.7616C1.30013 19.0676 1.29797 19.3736 1.29476 19.6796C1.29086 20.0513 1.28897 20.4229 1.28842 20.7946C1.2879 20.9349 1.28673 21.0752 1.28483 21.2155C1.272 22.2233 1.41414 23.1023 1.71915 24.0626C1.7451 24.1458 1.77105 24.2289 1.79778 24.3146C1.86378 24.5171 1.93353 24.7178 2.0054 24.9183C2.05647 25.0648 2.10754 25.2113 2.1586 25.3578C2.23686 25.5801 2.31538 25.8024 2.39412 26.0246C2.9575 27.6193 3.13281 28.8573 3.20352 30.6251C5.96211 30.6251 8.72071 30.6251 11.5629 30.6251C11.6918 30.1353 11.8207 29.6454 11.9535 29.1407C12.0693 28.7589 12.1875 28.3786 12.3113 27.9994C12.485 27.4485 12.5817 26.9006 12.6566 26.3282C12.2062 26.3167 11.7558 26.3081 11.3053 26.3025C11.152 26.3001 10.9988 26.2969 10.8456 26.2929C10.6253 26.2872 10.4051 26.2845 10.1847 26.2825C10.1163 26.2801 10.0478 26.2776 9.97729 26.2751C9.79105 26.275 9.6332 26.279 9.45352 26.3282C9.25595 26.5499 9.25595 26.5499 9.14102 26.797C8.91908 26.908 8.76174 26.8997 8.51602 26.8751C8.32954 26.7459 8.22314 26.6386 8.16553 26.4154C8.13919 26.2336 8.11955 26.052 8.10098 25.8693C7.95803 24.7958 7.52686 24.0371 6.7756 23.2673C6.57634 23.0609 6.3919 22.8499 6.21133 22.6271C6.1638 22.5685 6.11626 22.5098 6.06729 22.4495C5.738 21.9819 5.66979 21.6291 5.67178 21.0719C5.67093 21.0023 5.67009 20.9328 5.66922 20.8611C5.66655 20.6392 5.66532 20.4173 5.66446 20.1954C5.72121 18.3309 5.72121 18.3309 4.92227 16.7189C4.65314 16.4951 4.41774 16.3436 4.06778 16.2989C3.90783 16.3122 3.90783 16.3122 3.82852 16.4064C3.82009 16.5601 3.81709 16.7141 3.8162 16.868C3.815 17.0163 3.815 17.0163 3.81377 17.1675C3.8135 17.2207 3.81323 17.2739 3.81296 17.3287C3.81204 17.4948 3.81052 17.661 3.80881 17.8272C3.80399 18.2998 3.79977 18.7724 3.79716 19.245C3.79552 19.5338 3.79276 19.8226 3.78929 20.1114C3.78819 20.2214 3.7875 20.3315 3.78726 20.4415C3.78687 20.5958 3.78493 20.75 3.78293 20.9043C3.7823 20.992 3.78167 21.0797 3.78102 21.1701C3.74667 21.4351 3.67406 21.5834 3.51602 21.797C3.29655 21.9067 3.13414 21.8946 2.89102 21.8751C2.72218 21.8001 2.72218 21.8001 2.57852 21.6407C2.54648 21.4005 2.53446 21.1877 2.53587 20.9472C2.53506 20.8763 2.53426 20.8054 2.53342 20.7323C2.53112 20.4977 2.53101 20.2631 2.53091 20.0285C2.52974 19.8659 2.52844 19.7034 2.527 19.5408C2.52358 19.1127 2.52202 18.6847 2.52085 18.2566C2.51932 17.8198 2.51604 17.3831 2.51291 16.9464C2.50702 16.0893 2.50309 15.2322 2.50039 14.3751C2.30137 14.3751 2.09943 14.6261 1.95932 14.7496ZM8.82852 23.8282C8.9849 24.4635 8.9849 24.4635 9.29727 25.0001C9.49783 25.0078 9.69629 25.0103 9.89688 25.0095C9.99221 25.0096 9.99221 25.0096 10.0895 25.0097C10.3041 25.0098 10.5187 25.0094 10.7333 25.009C10.8865 25.009 11.0397 25.009 11.1928 25.009C11.6101 25.009 12.0273 25.0086 12.4446 25.008C12.8801 25.0076 13.3156 25.0075 13.7511 25.0074C14.5765 25.0072 15.4018 25.0065 16.2272 25.0057C17.1666 25.0049 18.1059 25.0044 19.0453 25.0041C20.9783 25.0032 22.9112 25.0019 24.8441 25.0001C24.7175 24.551 24.5381 24.2618 24.2973 23.8282C19.1926 23.8282 14.0879 23.8282 8.82852 23.8282ZM2.57852 32.2657C2.5394 32.4808 2.52572 32.648 2.52922 32.8628C2.52866 32.9226 2.5281 32.9823 2.52752 33.0439C2.5262 33.2411 2.52772 33.4382 2.52939 33.6354C2.52932 33.7726 2.52913 33.9097 2.52882 34.0469C2.52859 34.3343 2.52974 34.6217 2.53189 34.9091C2.53455 35.2774 2.53408 35.6457 2.53261 36.014C2.53179 36.2972 2.53249 36.5805 2.53366 36.8637C2.53407 36.9995 2.53403 37.1353 2.53354 37.2711C2.53311 37.461 2.53471 37.6507 2.53684 37.8405C2.53633 37.8966 2.53582 37.9527 2.5353 38.0105C2.53986 38.2486 2.56828 38.4188 2.68258 38.6287C3.02619 38.8288 3.37756 38.7928 3.76779 38.7893C3.90198 38.7899 3.90198 38.79 4.03888 38.7906C4.33499 38.7916 4.63104 38.7903 4.92715 38.7889C5.13264 38.7889 5.33814 38.789 5.54363 38.7892C5.97446 38.7894 6.40527 38.7884 6.8361 38.7866C7.33403 38.7845 7.83193 38.7844 8.32986 38.7853C8.80908 38.7861 9.28828 38.7856 9.76749 38.7845C9.97133 38.7842 10.1752 38.7841 10.379 38.7845C10.6637 38.7847 10.9483 38.7834 11.233 38.7817C11.3176 38.782 11.4022 38.7824 11.4893 38.7828C11.5669 38.782 11.6444 38.7812 11.7243 38.7804C11.8252 38.7801 11.8252 38.7801 11.9282 38.7798C12.1521 38.7432 12.2586 38.671 12.4223 38.5157C12.5149 38.2377 12.5109 38.0154 12.5117 37.7218C12.512 37.6652 12.5123 37.6085 12.5125 37.5501C12.5133 37.3626 12.5134 37.1752 12.5135 36.9877C12.5138 36.8574 12.514 36.7272 12.5143 36.5969C12.5148 36.3237 12.5149 36.0506 12.5149 35.7775C12.5149 35.4274 12.5159 35.0774 12.5173 34.7274C12.5181 34.4583 12.5183 34.1892 12.5183 33.9201C12.5184 33.7911 12.5187 33.6621 12.5193 33.533C12.5201 33.3525 12.5198 33.1721 12.5194 32.9916C12.5195 32.8889 12.5196 32.7862 12.5197 32.6804C12.5015 32.4365 12.4882 32.3043 12.3441 32.1095C12.1075 31.9644 11.9282 31.9334 11.6526 31.9324C11.5765 31.9317 11.5004 31.931 11.422 31.9303C11.2975 31.9304 11.2975 31.9304 11.1705 31.9305C11.0387 31.9298 11.0387 31.9298 10.9044 31.929C10.6137 31.9275 10.3231 31.9272 10.0324 31.927C9.83064 31.9265 9.62884 31.926 9.42704 31.9254C9.00389 31.9245 8.58075 31.9242 8.15761 31.9243C7.66882 31.9244 7.18006 31.9227 6.69128 31.9203C6.22066 31.918 5.75006 31.9174 5.27944 31.9175C5.07937 31.9173 4.8793 31.9166 4.67923 31.9154C4.39961 31.9139 4.12006 31.9143 3.84044 31.9153C3.7576 31.9144 3.67475 31.9135 3.58939 31.9126C3.00973 31.9105 3.00973 31.9105 2.57852 32.2657ZM28.9066 33.4376C28.8023 33.6464 28.8163 33.8091 28.8135 34.0429C28.8122 34.137 28.8109 34.2312 28.8097 34.3281C28.8062 34.7589 28.8029 35.1896 28.8012 35.6203C28.8001 35.8477 28.798 36.0751 28.7948 36.3025C28.7909 36.5773 28.789 36.8519 28.7884 37.1267C28.7876 37.282 28.785 37.4374 28.7823 37.5927C28.7825 37.6875 28.7827 37.7824 28.7829 37.8802C28.7823 37.9635 28.7817 38.0468 28.781 38.1327C28.8495 38.4597 28.942 38.5618 29.2191 38.7501C29.5144 38.8069 29.8048 38.8027 30.1048 38.7994C30.1943 38.8 30.2837 38.8005 30.3759 38.8011C30.6716 38.8024 30.9672 38.8009 31.2629 38.7993C31.4683 38.7993 31.6737 38.7995 31.879 38.7998C32.3094 38.8002 32.7398 38.7989 33.1701 38.7968C33.6675 38.7943 34.1648 38.7943 34.6622 38.7956C35.141 38.7968 35.6198 38.7963 36.0987 38.795C36.3023 38.7946 36.5059 38.7946 36.7095 38.7951C36.9938 38.7955 37.2781 38.7939 37.5624 38.7918C37.6891 38.7926 37.6891 38.7926 37.8183 38.7933C38.255 38.7919 38.255 38.7919 38.6463 38.6209C38.7787 38.3878 38.7905 38.2318 38.7921 37.9637C38.7933 37.868 38.7945 37.7723 38.7958 37.6737C38.7952 37.5191 38.7952 37.5191 38.7946 37.3613C38.7951 37.254 38.7955 37.1468 38.7961 37.0396C38.7969 36.8151 38.7966 36.5906 38.7954 36.366C38.7941 36.0788 38.7959 35.7916 38.7987 35.5044C38.8004 35.283 38.8003 35.0617 38.7996 34.8403C38.7995 34.683 38.8011 34.5258 38.8027 34.3686C38.8017 34.2727 38.8007 34.1767 38.7997 34.0779C38.7996 33.9937 38.7995 33.9094 38.7995 33.8226C38.7293 33.4957 38.6368 33.392 38.3598 33.2032C38.0696 33.147 37.7845 33.1515 37.4897 33.1552C37.4019 33.1547 37.3141 33.1543 37.2236 33.1539C36.9333 33.1529 36.6432 33.1548 36.3529 33.1569C36.1512 33.157 35.9496 33.157 35.7479 33.1568C35.3252 33.157 34.9025 33.1584 34.4798 33.1609C33.9916 33.1638 33.5035 33.1645 33.0152 33.1639C32.545 33.1634 32.0748 33.1643 31.6045 33.1658C31.4047 33.1663 31.2048 33.1666 31.005 33.1665C30.7257 33.1667 30.4466 33.1683 30.1673 33.1704C30.0846 33.1702 30.0019 33.17 29.9167 33.1697C29.3715 33.1714 29.3715 33.1714 28.9066 33.4376Z" fill="#4AAB3D"/>
<path d="M18.5937 8.19827C18.7533 8.32679 18.9077 8.45914 19.0624 8.59378C19.1256 8.64816 19.1887 8.70255 19.2538 8.75858C20.4615 9.87992 21.2635 11.5804 21.3359 13.2262C21.3396 13.4313 21.3409 13.6362 21.3412 13.8413C21.3414 13.9161 21.3417 13.9908 21.342 14.0679C21.3423 14.2251 21.3425 14.3824 21.3425 14.5397C21.3427 14.7804 21.3441 15.021 21.3456 15.2617C21.3458 15.4149 21.346 15.568 21.346 15.7212C21.3466 15.793 21.3472 15.8649 21.3477 15.9389C21.3475 16.006 21.3473 16.073 21.347 16.1421C21.3471 16.2008 21.3472 16.2595 21.3474 16.32C21.3245 16.5149 21.2808 16.6335 21.1718 16.7969C20.8986 16.9781 20.6572 16.973 20.335 16.9735C20.2823 16.9738 20.2297 16.9741 20.1755 16.9744C19.9992 16.9752 19.823 16.9749 19.6467 16.9746C19.5203 16.975 19.3939 16.9754 19.2675 16.9758C18.9241 16.9769 18.5808 16.9769 18.2375 16.9767C17.9509 16.9766 17.6643 16.977 17.3778 16.9774C16.7018 16.9783 16.0257 16.9783 15.3497 16.9778C14.6522 16.9773 13.9546 16.9783 13.2571 16.98C12.6583 16.9813 12.0595 16.9818 11.4607 16.9816C11.103 16.9814 10.7454 16.9816 10.3877 16.9827C10.0514 16.9837 9.71505 16.9835 9.37872 16.9825C9.25529 16.9823 9.13187 16.9826 9.00844 16.9832C8.83991 16.984 8.67145 16.9834 8.50292 16.9824C8.36148 16.9824 8.36148 16.9824 8.21718 16.9824C7.94406 16.9503 7.79667 16.8828 7.57804 16.7188C7.48671 16.5361 7.4886 16.4252 7.48609 16.2216C7.48509 16.1509 7.48408 16.0801 7.48305 16.0071C7.48247 15.9301 7.4819 15.853 7.4813 15.7737C7.48067 15.6938 7.48004 15.6139 7.47939 15.5316C7.47831 15.3616 7.47747 15.1916 7.47686 15.0215C7.47597 14.8498 7.47438 14.678 7.47205 14.5063C7.44302 12.3664 7.87641 10.5223 9.38596 8.93112C9.85887 8.45249 10.3416 8.05428 10.9374 7.73441C11.011 7.69302 11.0847 7.65162 11.1605 7.60898C13.4804 6.36783 16.5044 6.59472 18.5937 8.19827ZM11.0155 9.29691C11.0962 9.47058 11.1676 9.60493 11.2987 9.74613C11.4676 10.0225 11.4368 10.2257 11.4062 10.5469C11.328 10.7032 11.328 10.7032 11.1718 10.7813C10.65 10.8497 10.65 10.8497 10.4101 10.6906C10.2991 10.591 10.1885 10.4909 10.078 10.3907C9.76653 10.4945 9.6885 10.6845 9.53605 10.9571C9.5085 11.0059 9.48095 11.0547 9.45257 11.1049C9.11012 11.7336 8.89445 12.4112 8.82804 13.125C8.91702 13.1321 8.91702 13.1321 9.00779 13.1394C9.08544 13.1459 9.16308 13.1525 9.24308 13.1592C9.32012 13.1656 9.39717 13.1719 9.47654 13.1784C9.68742 13.2032 9.68742 13.2032 9.92179 13.2813C10.027 13.8456 10.027 13.8456 9.89738 14.1358C9.74017 14.3279 9.66756 14.3673 9.42314 14.3998C9.22477 14.4176 9.02641 14.4354 8.82804 14.4532C8.82804 14.8399 8.82804 15.2266 8.82804 15.625C9.83351 15.625 10.839 15.625 11.8749 15.625C11.9265 15.3672 11.978 15.1094 12.0312 14.8438C12.2756 14.1359 12.7161 13.659 13.3837 13.3252C13.6593 13.2192 13.8771 13.1995 14.1668 13.2257C14.8551 13.3064 14.8551 13.3064 15.4918 13.0908C15.8255 12.8096 16.1109 12.4884 16.3825 12.1477C16.4843 12.0313 16.4843 12.0313 16.6405 11.9532C17.1461 11.9256 17.1461 11.9256 17.4218 12.1094C17.4993 12.3593 17.5358 12.4837 17.4999 12.7344C17.3524 12.9785 17.1583 13.1632 16.953 13.3594C16.8375 13.4766 16.7219 13.5938 16.6064 13.711C16.5138 13.8023 16.4211 13.8935 16.328 13.9844C16.3601 14.0439 16.3921 14.1034 16.4251 14.1648C16.4672 14.2454 16.5093 14.3261 16.5527 14.4092C16.5943 14.4881 16.636 14.5669 16.679 14.6482C16.7968 14.9219 16.7968 14.9219 16.953 15.625C17.9585 15.625 18.964 15.625 19.9999 15.625C19.9999 15.2383 19.9999 14.8516 19.9999 14.4532C19.8775 14.4435 19.755 14.4338 19.6288 14.4239C19.3519 14.402 19.1437 14.3675 18.9062 14.2188C18.7854 13.9772 18.8051 13.7817 18.828 13.5157C18.9355 13.3301 18.9355 13.3301 19.1405 13.2032C19.4005 13.1551 19.6578 13.1351 19.9218 13.125C19.8976 12.1506 19.4949 11.1649 18.9062 10.3907C18.8288 10.3907 18.7515 10.3907 18.6718 10.3907C18.5896 10.4873 18.5896 10.4873 18.5058 10.586C18.2321 10.8239 18.0882 10.8356 17.7364 10.8139C17.578 10.7813 17.578 10.7813 17.4169 10.6543C17.3179 10.4036 17.2963 10.2686 17.3437 10C17.4557 9.8445 17.5763 9.7089 17.7099 9.57157C17.8295 9.45958 17.8295 9.45958 17.8124 9.29691C17.0086 8.68288 16.0806 8.32495 15.078 8.20316C15.0751 8.25593 15.0722 8.3087 15.0692 8.36307C15.0641 8.43276 15.0589 8.50245 15.0536 8.57425C15.0491 8.64313 15.0446 8.71202 15.0399 8.78299C14.9939 9.01497 14.9294 9.12768 14.7655 9.29691C14.4916 9.36664 14.3032 9.40396 14.0331 9.31156C13.9062 9.21878 13.9062 9.21878 13.828 9.06253C13.8103 8.91639 13.796 8.76981 13.7841 8.62308C13.7776 8.54473 13.771 8.46638 13.7643 8.38565C13.7595 8.32543 13.7548 8.26521 13.7499 8.20316C12.815 8.20316 11.7294 8.71565 11.0155 9.29691ZM13.4124 14.8972C13.2513 15.1591 13.203 15.3141 13.203 15.625C14.0023 15.625 14.8015 15.625 15.6249 15.625C15.564 15.1759 15.564 15.1759 15.3271 14.8633C15.2879 14.8186 15.2487 14.7739 15.2084 14.7278C14.9086 14.4554 14.6363 14.4181 14.2431 14.429C13.8905 14.4761 13.6325 14.6165 13.4124 14.8972Z" fill="#4AAB3D"/>
<path d="M26.5967 9.53126C27.0592 9.79671 27.3207 10.1561 27.5293 10.6397C27.5765 10.8521 27.5818 11.0335 27.5781 11.25C27.7122 11.2487 27.7122 11.2487 27.8489 11.2474C28.6904 11.2395 29.5318 11.2336 30.3733 11.2298C30.806 11.2277 31.2386 11.225 31.6712 11.2205C32.0886 11.2163 32.506 11.214 32.9234 11.2129C33.0828 11.2122 33.2421 11.2108 33.4015 11.2087C33.6245 11.2059 33.8474 11.2055 34.0704 11.2057C34.1364 11.2043 34.2025 11.2029 34.2706 11.2014C34.5928 11.2042 34.7178 11.2062 34.9629 11.4307C35.1141 11.7062 35.1232 11.8777 35.0781 12.1875C34.9323 12.3723 34.8187 12.4735 34.6094 12.5781C34.3877 12.5854 34.1679 12.588 33.9462 12.587C33.8433 12.587 33.8433 12.587 33.7383 12.587C33.5109 12.587 33.2835 12.5864 33.056 12.5858C32.8986 12.5856 32.7412 12.5855 32.5838 12.5854C32.1689 12.5851 31.7541 12.5844 31.3392 12.5835C30.9161 12.5827 30.493 12.5823 30.0699 12.582C29.2393 12.5811 28.4087 12.5798 27.5781 12.5781C27.5612 12.7271 27.5612 12.7271 27.5438 12.8791C27.487 13.3787 27.2407 13.6938 26.8945 14.0479C26.4309 14.3599 25.9528 14.5134 25.3906 14.4531C24.8399 14.3422 24.4279 14.1007 24.0625 13.6719C23.8412 13.3079 23.732 13.0062 23.75 12.5781C23.6981 12.5818 23.6463 12.5854 23.5928 12.5891C23.0246 12.6123 23.0246 12.6123 22.7295 12.4317C22.5506 12.2355 22.5058 12.153 22.4707 11.8897C22.5 11.6406 22.5 11.6406 22.6416 11.416C23.003 11.1751 23.3278 11.2167 23.75 11.25C23.7532 11.1485 23.7564 11.047 23.7598 10.9424C23.8114 10.4931 23.9959 10.177 24.2969 9.84376C24.963 9.31592 25.8055 9.17295 26.5967 9.53126ZM25.2194 10.8499C25.0141 11.2043 25.0354 11.5168 25.0439 11.919C25.0434 11.9928 25.0428 12.0667 25.0423 12.1428C25.0428 12.6408 25.0428 12.6408 25.3125 13.0469C25.5983 13.1401 25.7266 13.1505 26.001 13.0225C26.1788 12.905 26.1788 12.905 26.25 12.7344C26.2729 12.4664 26.2717 12.1976 26.2744 11.9287C26.2767 11.8544 26.2789 11.7802 26.2813 11.7037C26.2844 11.3607 26.2831 11.1513 26.1093 10.8493C25.9393 10.6797 25.9393 10.6797 25.6641 10.6543C25.3888 10.6796 25.3888 10.6796 25.2194 10.8499Z" fill="#4AAB3D"/>
<path d="M31.5971 5.15647C32.0467 5.41382 32.2935 5.77004 32.5297 6.22093C32.5883 6.44368 32.5817 6.64572 32.5785 6.87522C32.6432 6.87318 32.7078 6.87113 32.7744 6.86902C33.0671 6.86091 33.3599 6.85582 33.6527 6.85081C33.8053 6.8459 33.8053 6.8459 33.961 6.84089C34.0587 6.83963 34.1563 6.83837 34.257 6.83708C34.347 6.83503 34.437 6.83299 34.5297 6.83088C34.766 6.87522 34.766 6.87522 34.9516 7.05553C35.1178 7.33088 35.1245 7.49631 35.0785 7.81272C34.9052 8.03985 34.8036 8.11271 34.5317 8.20335C34.3817 8.20981 34.2316 8.21174 34.0815 8.21098C33.9942 8.21073 33.9068 8.21047 33.8168 8.21022C33.7256 8.20956 33.6344 8.20891 33.5404 8.20823C33.4483 8.20788 33.3562 8.20753 33.2614 8.20716C33.0337 8.20624 32.8061 8.20496 32.5785 8.20335C32.5642 8.34807 32.5642 8.34807 32.5495 8.49571C32.482 9.02953 32.2241 9.38335 31.807 9.71702C31.3127 10.0549 30.8763 10.1124 30.2903 10.0417C29.7705 9.93986 29.41 9.70658 29.0827 9.29191C28.859 8.94692 28.7504 8.61813 28.7504 8.20335C28.6798 8.20387 28.6092 8.20439 28.5365 8.20493C27.871 8.20962 27.2054 8.21319 26.5399 8.21549C26.1977 8.21671 25.8555 8.21837 25.5134 8.22103C25.1831 8.22358 24.8528 8.22498 24.5226 8.22559C24.3966 8.22602 24.2707 8.22686 24.1448 8.22813C23.9682 8.22983 23.7917 8.23006 23.6152 8.22996C23.5147 8.23048 23.4143 8.231 23.3108 8.23153C23.0258 8.20105 22.8824 8.14223 22.6567 7.96897C22.4737 7.69456 22.4616 7.58892 22.5004 7.26585C22.6222 7.05805 22.6222 7.05805 22.8129 6.87522C23.0231 6.83767 23.1838 6.82546 23.3934 6.83088C23.4514 6.83082 23.5093 6.83076 23.5691 6.8307C23.7602 6.83098 23.9511 6.83401 24.1422 6.83708C24.2749 6.83781 24.4076 6.83836 24.5403 6.83875C24.8891 6.84024 25.2379 6.84408 25.5868 6.8484C25.9429 6.8524 26.299 6.85418 26.6551 6.85615C27.3535 6.86034 28.052 6.867 28.7504 6.87522C28.7612 6.77723 28.772 6.67925 28.7831 6.57829C28.8348 6.10809 29.0419 5.72439 29.3754 5.39085C30.0525 4.91503 30.8333 4.81879 31.5971 5.15647ZM30.2195 6.47727C30.0188 6.82142 30.0385 7.11416 30.0492 7.50511C30.0493 7.57525 30.0494 7.64539 30.0495 7.71766C30.0552 8.17711 30.0552 8.17711 30.2348 8.59397C30.4187 8.72714 30.5151 8.75183 30.7426 8.74046C31.0022 8.64958 31.0886 8.58676 31.2504 8.3596C31.2979 8.07269 31.294 7.7904 31.2895 7.50022C31.2913 7.3833 31.2913 7.3833 31.2931 7.26402C31.2955 6.82198 31.2955 6.82198 31.1088 6.43363C30.7917 6.23827 30.5038 6.2304 30.2195 6.47727Z" fill="#4AAB3D"/>
</g>
<defs>
<clipPath id="clip0_20170_246596">
<rect width="40" height="40" fill="white"/>
</clipPath>
</defs>
</svg>
